<?xml version="1.0" encoding="utf-8"?>
<!-- Generator: Adobe Illustrator 24.0.0, SVG Export Plug-In . SVG Version: 6.00 Build 0)  -->
<svg version="1.1" id="Layer_1" xmlns="http://www.w3.org/2000/svg" xmlns:xlink="http://www.w3.org/1999/xlink" x="0px" y="0px"
	 viewBox="0 0 14 14" style="enable-background:new 0 0 14 14;" xml:space="preserve">
<style type="text/css">
	.st0{fill:#CECECE;}
</style>
<path class="st0" d="M8.1,11.1V9.4c0-0.1,0-0.1-0.1-0.2C8,9.2,7.9,9.2,7.8,9.2H6.2C6.1,9.2,6,9.2,6,9.2S5.9,9.4,5.9,9.4v1.6
	c0,0.1,0,0.1,0.1,0.2s0.1,0.1,0.2,0.1h1.6c0.1,0,0.1,0,0.2-0.1C8.1,11.2,8.1,11.1,8.1,11.1z M10.2,5.4c0-0.5-0.2-1-0.5-1.4
	S9.1,3.2,8.6,3C8.1,2.8,7.7,2.7,7.2,2.7C5.8,2.7,4.8,3.3,4,4.5C3.9,4.6,4,4.7,4.1,4.8l1.1,0.8c0,0,0.1,0.1,0.2,0.1
	c0.1,0,0.2,0,0.2-0.1C5.9,5.2,6.1,5,6.3,4.8C6.5,4.7,6.7,4.6,7,4.6c0.3,0,0.5,0.1,0.7,0.2C8,5,8.1,5.2,8.1,5.4
	c0,0.2-0.1,0.4-0.2,0.5C7.8,6,7.6,6.1,7.3,6.3C7,6.4,6.7,6.7,6.4,7C6.1,7.3,5.9,7.7,5.9,8v0.3c0,0.1,0,0.1,0.1,0.2s0.1,0.1,0.2,0.1
	h1.6c0.1,0,0.1,0,0.2-0.1c0.1-0.1,0.1-0.1,0.1-0.2c0-0.1,0.1-0.2,0.2-0.4c0.1-0.2,0.3-0.3,0.5-0.4C8.9,7.4,9,7.3,9.1,7.3
	C9.2,7.2,9.4,7.1,9.5,7c0.2-0.1,0.3-0.3,0.4-0.4c0.1-0.1,0.2-0.3,0.2-0.5S10.2,5.6,10.2,5.4z M13.5,7c0,1.2-0.3,2.3-0.9,3.3
	c-0.6,1-1.4,1.8-2.4,2.4c-1,0.6-2.1,0.9-3.3,0.9s-2.3-0.3-3.3-0.9c-1-0.6-1.8-1.4-2.4-2.4S0.5,8.2,0.5,7s0.3-2.3,0.9-3.3
	S2.7,2,3.7,1.4S5.8,0.5,7,0.5s2.3,0.3,3.3,0.9s1.8,1.4,2.4,2.4C13.2,4.7,13.5,5.8,13.5,7z"/>
</svg>
