<?xml version="1.0" encoding="UTF-8"?>
<svg xmlns="http://www.w3.org/2000/svg" xmlns:xlink="http://www.w3.org/1999/xlink" width="17pt" height="17pt" viewBox="0 0 17 17" version="1.1">
<g id="surface1">
<path style=" stroke:none;fill-rule:nonzero;fill:rgb(80.784314%,80.784314%,80.784314%);fill-opacity:1;" d="M 9.714844 13.054688 L 9.714844 11.230469 C 9.714844 11.144531 9.6875 11.070312 9.628906 11.015625 C 9.570312 10.957031 9.5 10.929688 9.410156 10.929688 L 7.589844 10.929688 C 7.5 10.929688 7.429688 10.957031 7.371094 11.015625 C 7.3125 11.070312 7.285156 11.144531 7.285156 11.230469 L 7.285156 13.054688 C 7.285156 13.140625 7.3125 13.214844 7.371094 13.273438 C 7.429688 13.328125 7.5 13.355469 7.589844 13.355469 L 9.410156 13.355469 C 9.5 13.355469 9.570312 13.328125 9.628906 13.273438 C 9.6875 13.214844 9.714844 13.140625 9.714844 13.054688 Z M 12.144531 6.679688 C 12.144531 6.121094 11.96875 5.605469 11.617188 5.132812 C 11.265625 4.65625 10.828125 4.292969 10.300781 4.03125 C 9.777344 3.773438 9.238281 3.644531 8.691406 3.644531 C 7.152344 3.644531 5.980469 4.316406 5.171875 5.664062 C 5.074219 5.816406 5.101562 5.949219 5.246094 6.0625 L 6.5 7.011719 C 6.542969 7.046875 6.601562 7.066406 6.679688 7.066406 C 6.78125 7.066406 6.859375 7.03125 6.914062 6.953125 C 7.25 6.523438 7.523438 6.234375 7.730469 6.082031 C 7.945312 5.929688 8.21875 5.851562 8.546875 5.851562 C 8.851562 5.851562 9.121094 5.933594 9.359375 6.101562 C 9.59375 6.265625 9.714844 6.449219 9.714844 6.660156 C 9.714844 6.898438 9.652344 7.09375 9.523438 7.238281 C 9.398438 7.382812 9.183594 7.527344 8.878906 7.664062 C 8.480469 7.84375 8.117188 8.117188 7.785156 8.484375 C 7.453125 8.855469 7.285156 9.253906 7.285156 9.675781 L 7.285156 10.019531 C 7.285156 10.105469 7.3125 10.179688 7.371094 10.234375 C 7.429688 10.292969 7.5 10.320312 7.589844 10.320312 L 9.410156 10.320312 C 9.5 10.320312 9.570312 10.292969 9.628906 10.234375 C 9.6875 10.179688 9.714844 10.105469 9.714844 10.019531 C 9.714844 9.898438 9.78125 9.742188 9.917969 9.546875 C 10.054688 9.355469 10.226562 9.199219 10.433594 9.078125 C 10.636719 8.964844 10.792969 8.875 10.898438 8.808594 C 11.007812 8.742188 11.152344 8.632812 11.335938 8.476562 C 11.519531 8.320312 11.660156 8.167969 11.757812 8.019531 C 11.855469 7.871094 11.945312 7.679688 12.023438 7.445312 C 12.101562 7.214844 12.144531 6.957031 12.144531 6.679688 Z M 15.785156 8.5 C 15.785156 9.820312 15.460938 11.039062 14.808594 12.15625 C 14.15625 13.273438 13.273438 14.15625 12.15625 14.808594 C 11.039062 15.460938 9.820312 15.785156 8.5 15.785156 C 7.179688 15.785156 5.960938 15.460938 4.84375 14.808594 C 3.726562 14.15625 2.84375 13.273438 2.191406 12.15625 C 1.539062 11.039062 1.214844 9.820312 1.214844 8.5 C 1.214844 7.179688 1.539062 5.960938 2.191406 4.84375 C 2.84375 3.726562 3.726562 2.84375 4.84375 2.191406 C 5.960938 1.539062 7.179688 1.214844 8.5 1.214844 C 9.820312 1.214844 11.039062 1.539062 12.15625 2.191406 C 13.273438 2.84375 14.15625 3.726562 14.808594 4.84375 C 15.460938 5.960938 15.785156 7.179688 15.785156 8.5 Z M 15.785156 8.5 "/>
</g>
</svg>
