<?xml version="1.0" encoding="utf-8"?>
<!-- Generator: Adobe Illustrator 24.0.0, SVG Export Plug-In . SVG Version: 6.00 Build 0)  -->
<svg version="1.1" id="Layer_1" xmlns="http://www.w3.org/2000/svg" xmlns:xlink="http://www.w3.org/1999/xlink" x="0px" y="0px"
	 viewBox="0 0 143 33" style="enable-background:new 0 0 143 33;" xml:space="preserve">
<style type="text/css">
	.st0{fill:#52b266;}
	.st1{fill:#FFFFFF;}
</style>
<path class="st0" d="M140,33H3c-1.7,0-3-1.3-3-3V3c0-1.7,1.3-3,3-3h137c1.7,0,3,1.3,3,3v27C143,31.7,141.7,33,140,33z"/>
<g>
	<path class="st1" d="M28.2,12.3v6c0,0.7-0.2,1.3-0.5,1.8c-0.3,0.5-0.8,0.9-1.3,1.2c-0.6,0.3-1.3,0.4-2.1,0.4
		c-1.2,0-2.1-0.3-2.8-0.9s-1-1.4-1-2.5v-6h2V18c0,0.7,0.1,1.2,0.4,1.6c0.3,0.3,0.8,0.5,1.4,0.5c0.6,0,1.1-0.2,1.4-0.5
		c0.3-0.3,0.4-0.9,0.4-1.6v-5.7H28.2z"/>
	<path class="st1" d="M36.9,15.2c0,1-0.3,1.8-0.9,2.3c-0.6,0.5-1.5,0.8-2.7,0.8h-0.8v3.3h-2v-9.3h3c1.1,0,2,0.2,2.6,0.7
		C36.6,13.5,36.9,14.3,36.9,15.2z M32.5,16.7h0.6c0.6,0,1.1-0.1,1.4-0.4c0.3-0.2,0.5-0.6,0.5-1c0-0.5-0.1-0.8-0.4-1
		c-0.3-0.2-0.6-0.3-1.2-0.3h-0.9V16.7z"/>
	<path class="st1" d="M42.2,16.4h3.7v4.8c-0.6,0.2-1.2,0.3-1.7,0.4c-0.5,0.1-1.1,0.1-1.6,0.1c-1.4,0-2.5-0.4-3.2-1.2
		c-0.7-0.8-1.1-2-1.1-3.5c0-1.5,0.4-2.7,1.3-3.5c0.9-0.8,2-1.3,3.6-1.3c1,0,1.9,0.2,2.8,0.6l-0.7,1.6c-0.7-0.3-1.4-0.5-2.1-0.5
		c-0.9,0-1.5,0.3-2,0.9S40.3,16,40.3,17c0,1,0.2,1.8,0.6,2.3c0.4,0.5,1,0.8,1.8,0.8c0.4,0,0.8,0,1.3-0.1V18h-1.8V16.4z"/>
	<path class="st1" d="M50,18.1v3.6h-2v-9.3h2.7c1.3,0,2.2,0.2,2.8,0.7c0.6,0.5,0.9,1.2,0.9,2.1c0,0.5-0.2,1-0.5,1.5
		c-0.3,0.4-0.7,0.8-1.3,1c1.4,2.1,2.3,3.4,2.7,4h-2.2l-2.2-3.6H50z M50,16.5h0.6c0.6,0,1.1-0.1,1.4-0.3c0.3-0.2,0.4-0.5,0.4-1
		c0-0.4-0.2-0.8-0.5-0.9c-0.3-0.2-0.8-0.3-1.4-0.3H50V16.5z"/>
	<path class="st1" d="M62.3,21.6l-0.7-2.2h-3.4l-0.7,2.2h-2.1l3.3-9.3h2.4l3.3,9.3H62.3z M61.2,17.8c-0.6-2-1-3.1-1.1-3.4
		c-0.1-0.3-0.1-0.5-0.2-0.6c-0.1,0.5-0.5,1.9-1.2,4H61.2z"/>
	<path class="st1" d="M73.3,16.9c0,1.5-0.4,2.7-1.3,3.5c-0.9,0.8-2.1,1.2-3.8,1.2h-2.6v-9.3h2.9c1.5,0,2.7,0.4,3.5,1.2
		S73.3,15.4,73.3,16.9z M71.3,16.9c0-2-0.9-3-2.6-3h-1v6h0.8C70.3,20,71.3,19,71.3,16.9z"/>
	<path class="st1" d="M80.6,21.6h-5.3v-9.3h5.3v1.6h-3.4v2h3.1v1.6h-3.1V20h3.4V21.6z"/>
	<path class="st1" d="M94.1,21.6h-2.5l-4-7h-0.1c0.1,1.2,0.1,2.1,0.1,2.7v4.4h-1.8v-9.3h2.5l4,7h0c-0.1-1.2-0.1-2.1-0.1-2.6v-4.4
		h1.8V21.6z"/>
	<path class="st1" d="M104.9,17c0,1.5-0.4,2.7-1.1,3.5s-1.9,1.2-3.3,1.2s-2.5-0.4-3.3-1.2s-1.1-2-1.1-3.6s0.4-2.7,1.1-3.5
		c0.8-0.8,1.9-1.2,3.3-1.2c1.4,0,2.5,0.4,3.3,1.2C104.5,14.2,104.9,15.4,104.9,17z M98.1,17c0,1,0.2,1.8,0.6,2.3
		c0.4,0.5,1,0.8,1.8,0.8c1.6,0,2.4-1,2.4-3.1c0-2.1-0.8-3.1-2.3-3.1c-0.8,0-1.4,0.3-1.8,0.8C98.3,15.1,98.1,15.9,98.1,17z"/>
	<path class="st1" d="M115.9,21.6h-2.2l-1.3-4.9c0-0.2-0.1-0.5-0.2-1.1c-0.1-0.5-0.2-0.9-0.2-1.1c0,0.2-0.1,0.6-0.2,1.1
		c-0.1,0.5-0.2,0.9-0.2,1.1l-1.3,4.9H108l-2.4-9.3h1.9l1.2,5.1c0.2,0.9,0.4,1.7,0.5,2.4c0-0.2,0.1-0.6,0.2-1.1
		c0.1-0.5,0.2-0.9,0.3-1.2l1.4-5.2h1.9l1.4,5.2c0.1,0.2,0.1,0.6,0.2,1.1c0.1,0.5,0.2,0.9,0.2,1.2c0-0.3,0.1-0.7,0.2-1.2
		c0.1-0.5,0.2-0.9,0.3-1.2l1.2-5.1h1.9L115.9,21.6z"/>
	<path class="st1" d="M119,20.7c0-0.4,0.1-0.6,0.3-0.8c0.2-0.2,0.5-0.3,0.8-0.3c0.4,0,0.6,0.1,0.8,0.3c0.2,0.2,0.3,0.5,0.3,0.8
		c0,0.3-0.1,0.6-0.3,0.8c-0.2,0.2-0.5,0.3-0.8,0.3c-0.4,0-0.6-0.1-0.8-0.3C119.1,21.3,119,21,119,20.7z M120.9,18.5h-1.5l-0.3-6.2
		h2.2L120.9,18.5z"/>
</g>
</svg>
