<?xml version="1.0" encoding="utf-8"?>
<!-- Generator: Adobe Illustrator 24.0.0, SVG Export Plug-In . SVG Version: 6.00 Build 0)  -->
<svg version="1.1" id="Layer_1" xmlns="http://www.w3.org/2000/svg" xmlns:xlink="http://www.w3.org/1999/xlink" x="0px" y="0px"
	 viewBox="0 0 143 33" style="enable-background:new 0 0 143 33;" xml:space="preserve">
<style type="text/css">
	.st0{fill:#52b266;}
	.st1{fill:#FFFFFF;}
</style>
<path class="st0" d="M140,33H3c-1.7,0-3-1.3-3-3V3c0-1.7,1.3-3,3-3h137c1.7,0,3,1.3,3,3v27C143,31.7,141.7,33,140,33z"/>
<g>
	<path class="st1" d="M12.4,21.6l-0.7-2.2H8.3l-0.7,2.2H5.5l3.3-9.3h2.4l3.3,9.3H12.4z M11.2,17.8c-0.6-2-1-3.1-1.1-3.4
		c-0.1-0.3-0.1-0.5-0.2-0.6c-0.1,0.5-0.5,1.9-1.2,4H11.2z"/>
	<path class="st1" d="M23.9,21.6h-2.5l-4-7h-0.1c0.1,1.2,0.1,2.1,0.1,2.7v4.4h-1.8v-9.3h2.5l4,7h0c-0.1-1.2-0.1-2.1-0.1-2.6v-4.4
		h1.8V21.6z"/>
	<path class="st1" d="M31.9,21.6l-0.7-2.2h-3.4l-0.7,2.2H25l3.3-9.3h2.4l3.3,9.3H31.9z M30.7,17.8c-0.6-2-1-3.1-1.1-3.4
		c-0.1-0.3-0.1-0.5-0.2-0.6c-0.1,0.5-0.5,1.9-1.2,4H30.7z"/>
	<path class="st1" d="M35.2,12.3h2.9c1.3,0,2.3,0.2,2.9,0.6c0.6,0.4,0.9,1,0.9,1.8c0,0.6-0.1,1-0.4,1.4c-0.3,0.4-0.6,0.6-1,0.6v0.1
		c0.6,0.1,1,0.4,1.3,0.7c0.3,0.4,0.4,0.8,0.4,1.4c0,0.8-0.3,1.5-0.9,2c-0.6,0.5-1.4,0.7-2.5,0.7h-3.5V12.3z M37.1,16h1.1
		c0.5,0,0.9-0.1,1.2-0.2c0.2-0.2,0.4-0.4,0.4-0.8c0-0.4-0.1-0.6-0.4-0.8c-0.3-0.2-0.7-0.2-1.2-0.2h-1V16z M37.1,17.6V20h1.3
		c0.5,0,0.9-0.1,1.2-0.3c0.3-0.2,0.4-0.5,0.4-1c0-0.8-0.6-1.2-1.7-1.2H37.1z"/>
	<path class="st1" d="M49.6,21.6l-0.7-2.2h-3.4l-0.7,2.2h-2.1l3.3-9.3h2.4l3.3,9.3H49.6z M48.5,17.8c-0.6-2-1-3.1-1.1-3.4
		c-0.1-0.3-0.1-0.5-0.2-0.6c-0.1,0.5-0.5,1.9-1.2,4H48.5z"/>
	<path class="st1" d="M61.3,17c0,1.5-0.4,2.7-1.1,3.5s-1.9,1.2-3.3,1.2s-2.5-0.4-3.3-1.2s-1.1-2-1.1-3.6s0.4-2.7,1.1-3.5
		c0.8-0.8,1.9-1.2,3.3-1.2s2.5,0.4,3.3,1.2C60.9,14.2,61.3,15.4,61.3,17z M54.5,17c0,1,0.2,1.8,0.6,2.3c0.4,0.5,1,0.8,1.8,0.8
		c0.8,0,1.4-0.3,1.8-0.8c0.4-0.5,0.6-1.3,0.6-2.3s-0.2-1.8-0.6-2.3s-1-0.8-1.8-0.8s-1.4,0.3-1.8,0.8C54.7,15.2,54.5,15.9,54.5,17z
		 M58.5,16.1v1.6h-3.3v-1.6H58.5z"/>
	<path class="st1" d="M67.2,21.6l-2.2-7.3h-0.1c0.1,1.5,0.1,2.5,0.1,3v4.3h-1.8v-9.3h2.7l2.2,7.1h0l2.3-7.1h2.7v9.3h-1.8v-4.4
		c0-0.2,0-0.4,0-0.7c0-0.3,0-1,0.1-2.2h-0.1L69,21.6H67.2z"/>
	<path class="st1" d="M75.5,21.6v-9.3h2v9.3H75.5z"/>
	<path class="st1" d="M79.1,21.6v-1.5l3-3.3l-2.9-2.9v-1.5h6.3v1.6h-2.8c-0.2,0-0.7,0-1.4-0.1l2.9,2.9l-3,3.3c1-0.1,1.6-0.1,1.8-0.1
		h2.9v1.6H79.1z"/>
	<path class="st1" d="M95.1,21.6h-2v-4h-3.7v4h-2v-9.3h2V16h3.7v-3.6h2V21.6z"/>
	<path class="st1" d="M104.4,21.6h-2V14h-2.5v-1.6h7V14h-2.5V21.6z"/>
	<path class="st1" d="M112.3,13.8c-0.8,0-1.4,0.2-1.8,0.7s-0.6,1.1-0.6,2c0,0.9,0.1,1.6,0.4,2.1c0.3,0.5,0.7,1,1.3,1.3v1.8h-4.1V20
		h2.4c-0.6-0.4-1.1-0.9-1.5-1.6c-0.3-0.7-0.5-1.4-0.5-2.3c0-0.8,0.2-1.5,0.5-2.1c0.4-0.6,0.9-1,1.5-1.4s1.4-0.5,2.3-0.5
		c1.4,0,2.4,0.4,3.2,1.1s1.2,1.7,1.2,2.8c0,0.8-0.2,1.6-0.5,2.3c-0.4,0.7-0.9,1.2-1.5,1.6h2.4v1.7H113v-1.8c0.6-0.3,1-0.7,1.3-1.3
		s0.4-1.2,0.4-2.1c0-0.8-0.2-1.5-0.6-2C113.6,14.1,113.1,13.8,112.3,13.8z"/>
	<path class="st1" d="M125,15.2c0,1-0.3,1.8-0.9,2.3c-0.6,0.5-1.5,0.8-2.7,0.8h-0.8v3.3h-2v-9.3h3c1.1,0,2,0.2,2.6,0.7
		C124.7,13.5,125,14.3,125,15.2z M120.5,16.7h0.6c0.6,0,1.1-0.1,1.4-0.4c0.3-0.2,0.5-0.6,0.5-1c0-0.5-0.1-0.8-0.4-1
		s-0.6-0.3-1.2-0.3h-0.9V16.7z"/>
	<path class="st1" d="M132.4,21.6l-0.7-2.2h-3.4l-0.7,2.2h-2.1l3.3-9.3h2.4l3.3,9.3H132.4z M131.3,17.8c-0.6-2-1-3.1-1.1-3.4
		s-0.1-0.5-0.2-0.6c-0.1,0.5-0.5,1.9-1.2,4H131.3z"/>
	<path class="st1" d="M135.3,20.7c0-0.4,0.1-0.6,0.3-0.8c0.2-0.2,0.5-0.3,0.8-0.3c0.4,0,0.6,0.1,0.8,0.3c0.2,0.2,0.3,0.5,0.3,0.8
		c0,0.3-0.1,0.6-0.3,0.8c-0.2,0.2-0.5,0.3-0.8,0.3c-0.4,0-0.6-0.1-0.8-0.3C135.4,21.3,135.3,21,135.3,20.7z M137.2,18.5h-1.5
		l-0.3-6.2h2.2L137.2,18.5z"/>
</g>
</svg>
